<svg xmlns="http://www.w3.org/2000/svg" viewBox="0 0 512 512" width="512" height="512">
  <!-- Concept B: Two drops leaning toward each other, forming a connection -->
  <defs>
    <linearGradient id="leftDrop" x1="0%" y1="0%" x2="100%" y2="100%">
      <stop offset="0%" stop-color="#3D8FD6"/>
      <stop offset="100%" stop-color="#005CAF"/>
    </linearGradient>
    <linearGradient id="rightDrop" x1="100%" y1="0%" x2="0%" y2="100%">
      <stop offset="0%" stop-color="#3D8FD6"/>
      <stop offset="100%" stop-color="#004A8F"/>
    </linearGradient>
  </defs>
  <!-- Left drop (tilted right) -->
  <g transform="translate(170, 256) rotate(-15)">
    <path d="M0 -140 C0 -140 -80 10 -80 70 C-80 114.2 -44.2 150 0 150 C44.2 150 80 114.2 80 70 C80 10 0 -140 0 -140Z" fill="url(#leftDrop)"/>
  </g>
  <!-- Right drop (tilted left) -->
  <g transform="translate(342, 256) rotate(15)">
    <path d="M0 -140 C0 -140 -80 10 -80 70 C-80 114.2 -44.2 150 0 150 C44.2 150 80 114.2 80 70 C80 10 0 -140 0 -140Z" fill="url(#rightDrop)"/>
  </g>
  <!-- Connection spark/bridge between the two drops -->
  <g opacity="0.9">
    <circle cx="232" cy="290" r="6" fill="white"/>
    <circle cx="256" cy="286" r="4" fill="white" opacity="0.7"/>
    <circle cx="280" cy="290" r="6" fill="white"/>
    <line x1="238" y1="290" x2="274" y2="290" stroke="white" stroke-width="3" stroke-dasharray="6,4" stroke-linecap="round"/>
  </g>
</svg>
